HIERARCHY
ROOT Hips
{
	OFFSET 0.000000 0.000000 0.000000
	CHANNELS 6 Xposition Yposition Zposition Xrotation Yrotation Zrotation
	JOINT LeftUpLeg_virtual
	{
		OFFSET 0.000000 0.000000 0.000000
		CHANNELS 3 Xrotation Yrotation Zrotation
		JOINT LeftUpLeg
		{
			OFFSET 11.394100 -6.187798 -0.413800
			CHANNELS 3 Xrotation Yrotation Zrotation
			JOINT LeftLeg
			{
				OFFSET 0.430247 -32.302673 3.732800
				CHANNELS 3 Xrotation Yrotation Zrotation
				JOINT LeftFoot
				{
					OFFSET -0.430247 -48.264931 -6.423300
					CHANNELS 3 Xrotation Yrotation Zrotation
					JOINT LeftToeBase
					{
						OFFSET 4.230900 -16.068199 23.438400
						CHANNELS 3 Xrotation Yrotation Zrotation
						JOINT LeftToe_End
						{
							OFFSET 4.510700 0.695400 19.974600
							CHANNELS 3 Xrotation Yrotation Zrotation
							End Site
							{
								OFFSET 0 0 0
							}
						}
					}
				}
			}
		}
	}
	JOINT RightUpLeg_virtual
	{
		OFFSET 0.000000 0.000000 0.000000
		CHANNELS 3 Xrotation Yrotation Zrotation
		JOINT RightUpLeg
		{
			OFFSET -11.333700 -6.187798 -0.413800
			CHANNELS 3 Xrotation Yrotation Zrotation
			JOINT RightLeg
			{
				OFFSET -0.430392 -32.302628 3.733000
				CHANNELS 3 Xrotation Yrotation Zrotation
				JOINT RightFoot
				{
					OFFSET 0.430392 -48.264973 -6.423500
					CHANNELS 3 Xrotation Yrotation Zrotation
					JOINT RightToeBase
					{
						OFFSET -4.230900 -16.068199 23.438400
						CHANNELS 3 Xrotation Yrotation Zrotation
						JOINT RightToe_End
						{
							OFFSET -4.510700 0.695400 19.974600
							CHANNELS 3 Xrotation Yrotation Zrotation
							End Site
							{
								OFFSET 0 0 0
							}
						}
					}
				}
			}
		}
	}
	JOINT Spine_virtual
	{
		OFFSET 0.000000 0.000000 0.000000
		CHANNELS 3 Xrotation Yrotation Zrotation
		JOINT Spine
		{
			OFFSET -0.002400 12.777504 0.315300
			CHANNELS 3 Xrotation Yrotation Zrotation
			JOINT Spine1
			{
				OFFSET -0.002067 5.816869 0.032633
				CHANNELS 3 Xrotation Yrotation Zrotation
				JOINT Spine1_split
				{
					OFFSET -0.002067 5.816869 0.032633
					CHANNELS 3 Xrotation Yrotation Zrotation
					JOINT Spine2
					{
						OFFSET -0.002067 5.816869 0.032633
						CHANNELS 3 Xrotation Yrotation Zrotation
						JOINT Neck_virtual
						{
							OFFSET 0.000000 0.000000 0.000000
							CHANNELS 3 Xrotation Yrotation Zrotation
							JOINT Neck
							{
								OFFSET -0.003700 21.199493 -0.826900
								CHANNELS 3 Xrotation Yrotation Zrotation
								JOINT Head
								{
									OFFSET 0.000000 20.442200 4.834800
									CHANNELS 3 Xrotation Yrotation Zrotation
									JOINT HeadTop_End
									{
										OFFSET 0.000000 34.668396 4.968400
										CHANNELS 3 Xrotation Yrotation Zrotation
										End Site
										{
											OFFSET 0 0 0
										}
									}
								}
							}
						}
						JOINT LeftShoulder_virtual
						{
							OFFSET 0.000000 0.000000 0.000000
							CHANNELS 3 Xrotation Yrotation Zrotation
							JOINT LeftShoulder
							{
								OFFSET 3.288150 8.794197 -1.372250
								CHANNELS 3 Xrotation Yrotation Zrotation
								JOINT LeftShoulder_split
								{
									OFFSET 3.288150 8.794197 -1.372250
									CHANNELS 3 Xrotation Yrotation Zrotation
									JOINT LeftArm
									{
										OFFSET 11.953299 -2.279007 -0.146200
										CHANNELS 3 Xrotation Yrotation Zrotation
										JOINT LeftForeArm
										{
											OFFSET 18.448900 0.000000 0.000000
											CHANNELS 3 Xrotation Yrotation Zrotation
											JOINT LeftHand
											{
												OFFSET 29.527798 0.000000 0.000000
												CHANNELS 3 Xrotation Yrotation Zrotation
												End Site
												{
													OFFSET 0 0 0
												}
											}
										}
									}
								}
							}
						}
						JOINT RightShoulder_virtual
						{
							OFFSET 0.000000 0.000000 0.000000
							CHANNELS 3 Xrotation Yrotation Zrotation
							JOINT RightShoulder
							{
								OFFSET -3.249400 8.794197 -1.372250
								CHANNELS 3 Xrotation Yrotation Zrotation
								JOINT RightShoulder_split
								{
									OFFSET -3.249400 8.794197 -1.372250
									CHANNELS 3 Xrotation Yrotation Zrotation
									JOINT RightArm
									{
										OFFSET -11.953299 -2.279007 -0.146200
										CHANNELS 3 Xrotation Yrotation Zrotation
										JOINT RightForeArm
										{
											OFFSET -18.448900 0.000000 0.000000
											CHANNELS 3 Xrotation Yrotation Zrotation
											JOINT RightHand
											{
												OFFSET -29.527802 0.000000 0.000000
												CHANNELS 3 Xrotation Yrotation Zrotation
												End Site
												{
													OFFSET 0 0 0
												}
											}
										}
									}
								}
							}
						}
					}
				}
			}
		}
	}
}
MOTION
Frames: 5
Frame Time: 0.03333333
1.010743 138.037201 15.200745 0.000000 0.000000 0.000000 -87.202350 -4.746915 -0.355766 -12.369835 14.725548 15.452075 7.132876 4.538485 4.766372 15.383015 27.500034 -19.215504 -6.612441 0.172287 1.328646 0.000000 0.000000 0.000000 -88.414866 -2.036818 0.956736 -15.842634 -15.252424 -12.698322 17.530435 -4.032524 -8.593374 25.153087 -30.949124 29.327927 -11.622983 1.652875 -2.576934 0.000000 0.000000 0.000000 -86.599518 -6.247671 -2.788267 4.691391 1.622190 0.376330 16.698906 3.921632 -1.748785 0.366592 -0.366905 -0.092233 0.000000 0.000000 0.000000 15.133841 3.750370 -2.310545 -1.995937 0.839721 -3.725747 21.398947 4.772050 -8.610360 0.000000 0.000000 0.000000 16.759058 3.318982 -1.719772 -0.466148 7.329356 1.945965 -0.299700 -1.260704 -3.047026 15.578347 -51.352497 -39.671436 -0.726522 -80.740165 -0.088865 0.000000 0.000000 0.000000 15.150393 3.463996 -2.179400 0.888805 1.709590 14.229804 1.562801 2.525823 1.865634 -33.803364 34.236275 62.209834 178.408434 53.757106 179.896391 0.000000 0.000000 0.000000 
0.983672 137.904694 14.996479 0.000000 0.000000 0.000000 -87.087945 -5.197042 -0.729460 -12.317358 14.370995 15.542073 7.129145 4.874290 4.806924 14.979462 27.866738 -19.227896 -6.639864 0.185330 1.165769 0.000000 0.000000 0.000000 -88.344337 -2.619407 0.437061 -16.233454 -15.456581 -12.482182 16.857315 -4.005376 -8.466395 25.618610 -30.521213 29.252225 -12.156133 1.625459 -2.368913 0.000000 0.000000 0.000000 -86.560968 -6.699893 -3.002854 4.046665 1.443613 0.334054 16.415629 3.714302 -1.614144 0.510390 -0.178449 -0.153329 0.000000 0.000000 0.000000 14.900748 3.607546 -2.201785 -1.175460 0.673537 -3.589647 21.970345 4.942182 -8.806162 0.000000 0.000000 0.000000 16.574868 3.118284 -1.598831 -0.385509 6.687530 1.636122 -0.354332 -1.333131 -2.843800 16.672927 -50.336199 -39.926673 -0.768183 -80.987595 -0.292209 0.000000 0.000000 0.000000 15.045459 3.317485 -2.019851 0.930499 1.131030 14.459758 1.172573 2.774298 1.955783 -34.083870 35.436845 61.989677 178.314027 54.988876 179.956620 0.000000 0.000000 0.000000 
0.942623 137.824524 14.886250 0.000000 0.000000 0.000000 -86.886044 -5.596426 -1.174707 -12.471248 13.973051 15.600982 7.127767 5.212802 4.732743 14.976820 28.158140 -19.143150 -6.817290 0.175100 1.033595 0.000000 0.000000 0.000000 -88.115253 -3.062049 -0.091399 -16.651532 -15.627150 -12.364523 16.070405 -3.958946 -8.288746 26.634748 -29.912229 29.461212 -13.071321 1.590573 -2.195373 0.000000 0.000000 0.000000 -86.315744 -7.015679 -3.238259 3.379096 1.228650 0.346666 15.964833 3.368360 -1.428923 0.628764 0.069722 -0.171160 0.000000 0.000000 0.000000 14.446402 3.322019 -2.017125 -0.339202 0.489768 -3.365732 22.514054 4.836101 -8.892300 0.000000 0.000000 0.000000 16.196870 2.775085 -1.407533 -0.284649 6.008202 1.460617 -0.395775 -1.242640 -2.642586 17.787115 -49.195711 -40.740473 -0.955261 -81.404059 -0.697120 0.000000 0.000000 0.000000 14.769318 3.030429 -1.817810 0.943909 0.603825 14.537677 0.833881 3.125889 2.107037 -33.312209 36.793170 61.081016 178.211848 55.617971 -179.906049 0.000000 0.000000 0.000000 
0.889032 137.801559 14.823162 0.000000 0.000000 0.000000 -86.596492 -5.909661 -1.655165 -12.805862 13.627447 15.620315 7.135155 5.515809 4.562769 15.413707 28.330571 -19.027398 -6.999158 0.151948 0.942852 0.000000 0.000000 0.000000 -87.776380 -3.407159 -0.648601 -16.992496 -15.742722 -12.284077 15.229020 -3.970818 -8.099806 27.765851 -29.398258 29.698988 -14.053119 1.545812 -2.048649 0.000000 0.000000 0.000000 -85.942597 -7.222351 -3.547885 2.775417 0.995248 0.430552 15.327885 2.906569 -1.197069 0.701295 0.285524 -0.218247 0.000000 0.000000 0.000000 13.774868 2.914987 -1.770826 0.356134 0.315968 -3.082354 22.885816 4.591067 -8.956452 0.000000 0.000000 0.000000 15.598562 2.319992 -1.165060 -0.171127 5.372966 1.382815 -0.413430 -1.142901 -2.508575 19.010833 -47.861010 -41.957418 -1.527113 -81.821445 -1.507282 0.000000 0.000000 0.000000 14.299899 2.624101 -1.585019 0.908352 0.137577 14.438503 0.597015 3.284979 2.308582 -31.522218 38.058453 59.383768 178.148204 55.479052 -179.727959 0.000000 0.000000 0.000000 
0.818420 137.834106 14.864052 0.000000 0.000000 0.000000 -86.303361 -6.096124 -2.106915 -13.223853 13.420918 15.593313 7.141677 5.780974 4.336405 16.189235 28.380823 -18.951024 -7.178627 0.123580 0.927263 0.000000 0.000000 0.000000 -87.388022 -3.672455 -1.197511 -17.200547 -15.797142 -12.188724 14.505887 -4.092731 -7.943121 28.621631 -29.245723 29.731185 -14.883160 1.496224 -1.952132 0.000000 0.000000 0.000000 -85.504078 -7.333239 -3.892836 2.317908 0.768477 0.573175 14.519514 2.375545 -0.936692 0.743581 0.597268 -0.264325 0.000000 0.000000 0.000000 12.922633 2.429057 -1.483746 0.788445 0.183389 -2.816952 23.028058 4.298373 -9.090320 0.000000 0.000000 0.000000 14.797289 1.808771 -0.902797 -0.066791 4.780149 1.359801 -0.594544 -1.060260 -2.508014 20.348471 -46.326106 -43.369901 -2.601302 -82.058166 -2.774807 0.000000 0.000000 0.000000 13.627628 2.155860 -1.336557 0.791660 -0.255567 14.262939 0.537828 3.164946 2.470060 -29.023878 38.972581 57.100078 178.167233 54.722383 -179.561343 0.000000 0.000000 0.000000 
